<?xml version="1.0" encoding="UTF-8"?>
<svg xmlns="http://www.w3.org/2000/svg" xmlns:xlink="http://www.w3.org/1999/xlink" width="75pt" height="74.999997pt" viewBox="0 0 75 74.999997" version="1.2">
<g id="surface1">
<path style=" stroke:none;fill-rule:nonzero;fill:rgb(0%,20.779419%,41.958618%);fill-opacity:1;" d="M 0 37.5 C 0 16.792969 16.792969 0 37.5 0 C 58.207031 0 75 16.792969 75 37.5 C 75 58.207031 58.207031 75 37.5 75 C 16.792969 75 0 58.207031 0 37.5 Z M 0 37.5 "/>
<path style=" stroke:none;fill-rule:nonzero;fill:rgb(100%,68.238831%,0%);fill-opacity:1;" d="M 37.894531 21.507812 L 40.449219 26.679688 L 46.144531 27.507812 L 42.019531 31.53125 L 43 37.210938 L 37.894531 34.523438 L 32.800781 37.210938 L 33.78125 31.53125 L 29.65625 27.507812 L 35.355469 26.679688 Z M 37.894531 21.507812 "/>
<path style=" stroke:none;fill-rule:nonzero;fill:rgb(100%,68.238831%,0%);fill-opacity:1;" d="M 58.75 21.507812 L 61.304688 26.679688 L 67.003906 27.507812 L 62.878906 31.53125 L 63.84375 37.210938 L 58.75 34.523438 L 53.65625 37.210938 L 54.625 31.53125 L 50.5 27.507812 L 56.195312 26.679688 Z M 58.75 21.507812 "/>
<path style=" stroke:none;fill-rule:nonzero;fill:rgb(100%,68.238831%,0%);fill-opacity:1;" d="M 47.582031 40.507812 L 50.136719 45.675781 L 55.835938 46.492188 L 51.707031 50.515625 L 52.691406 56.195312 L 47.582031 53.523438 L 42.488281 56.195312 L 43.46875 50.515625 L 39.34375 46.492188 L 45.042969 45.675781 Z M 47.582031 40.507812 "/>
<path style=" stroke:none;fill-rule:nonzero;fill:rgb(100%,68.238831%,0%);fill-opacity:1;" d="M 16.050781 21.371094 L 18.605469 26.527344 L 24.304688 27.359375 L 20.179688 31.378906 L 21.160156 37.0625 L 16.050781 34.371094 L 10.957031 37.0625 L 11.941406 31.378906 L 7.8125 27.359375 L 13.511719 26.527344 Z M 16.050781 21.371094 "/>
<path style=" stroke:none;fill-rule:nonzero;fill:rgb(100%,68.238831%,0%);fill-opacity:1;" d="M 26.890625 39.796875 L 29.429688 44.964844 L 35.140625 45.796875 L 31.015625 49.820312 L 31.984375 55.488281 L 26.890625 52.8125 L 21.78125 55.488281 L 22.761719 49.820312 L 18.636719 45.796875 L 24.335938 44.964844 Z M 26.890625 39.796875 "/>
</g>
</svg>
